<svg preserveAspectRatio="none" width="100%" height="100%" overflow="visible" style="display: block;" viewBox="0 0 1589.76 1417.07" fill="none" xmlns="http://www.w3.org/2000/svg">
<path id="Vector 32" d="M110.471 436.804L46.9819 444.423L0 1417.07H1589.76V429.186L1512.31 425.376L1516.12 355.538C1511.46 342.417 1497.83 314.398 1480.56 307.287C1463.29 300.176 1428.5 313.636 1413.27 321.254L1419.61 104.122L1338.35 222.212H1328.19C1324.13 222.212 1312.11 227.291 1306.6 229.83C1312.11 202.318 1323.36 140.438 1324.38 113.01C1325.4 85.5832 1328.19 0.0018316 1281.21 0C1145.34 5.08036 1061.54 350.459 1061.54 350.459H1032.33H998.047L992.968 366.966H900.274C896.888 367.813 889.354 368.49 886.307 364.427C883.259 360.364 874.879 359.348 871.069 359.348V323.794C869.799 317.022 866.498 301.192 863.451 292.049C860.403 282.907 851.176 274.696 846.943 271.733C845.25 263.691 838.817 247.099 826.627 245.068C814.437 243.036 803.771 248.454 799.962 251.416C797.422 246.337 790.311 235.417 782.185 232.37C774.058 229.322 762.715 237.872 758.059 242.528C753.826 240.835 744.091 237.703 739.012 238.719C733.933 239.735 725.891 248.454 722.505 252.686C717.849 252.686 706.506 254.464 698.379 261.575C690.253 268.685 690.76 280.621 692.03 285.701L675.523 302.208C671.46 306.271 672.137 319.985 672.983 326.334C672.137 329.296 669.936 336.492 667.904 341.571C665.873 346.65 666.211 358.078 666.635 363.157L652.667 365.697L633.62 363.157L655.207 288.24L662.825 274.273L622.192 270.463L627.271 224.751L586.638 231.1L589.178 217.132L576.48 215.863L443.153 68.5681L405.06 253.956C352.665 234.36 326.474 240.851 281.891 264.114L198.086 185.388L213.323 332.682L110.471 436.804Z" fill="var(--fill-0, #D9D9D9)"/>
</svg>
