<svg preserveAspectRatio="none" width="100%" height="100%" overflow="visible" style="display: block;" viewBox="0 0 1589.76 1600.1" fill="none" xmlns="http://www.w3.org/2000/svg">
<path id="Vector 31" d="M110.471 619.831L46.9819 627.45L0 1600.1H1589.76V612.212L1512.31 608.403L1516.12 538.565C1511.46 525.444 1497.83 497.424 1480.56 490.313C1463.29 483.202 1428.5 496.662 1413.27 504.281L1419.61 287.148L1338.35 405.238H1328.19C1324.13 405.238 1312.11 410.317 1306.6 412.857C1312.11 385.345 1323.36 323.464 1324.38 296.037C1325.4 268.61 1328.19 183.028 1281.21 183.026C1221.19 180.599 1156.08 288.713 1156.08 288.713L1088.51 291.17V275.199L1142.57 276.427L1089.74 216.228L1052.88 213.771L866.139 0L767.854 92.1425L636.397 194.113L583.569 191.656L544.255 246.942L563.912 249.399L491.427 304.684L443.512 251.856L429.998 321.884C428.77 323.522 424.838 328.273 418.941 334.17C413.044 340.067 407.474 362.018 405.427 372.256L337.856 426.313C315.25 426.313 291.127 440.198 281.891 447.141L198.086 368.414L213.323 515.709L110.471 619.831Z" fill="var(--fill-0, #D9D9D9)"/>
</svg>
