<svg width="19" height="31" viewBox="0 0 19 31" fill="none" xmlns="http://www.w3.org/2000/svg">
<path d="M4.91209e-05 6.58014C-3.23638e-05 6.26689 0.253939 6.00794 0.567188 6.00794H4.57475C4.888 6.00794 5.14191 6.2662 5.142 6.57945C5.1444 15.0238 5.25494 17.501 10.3426 17.6628C10.6557 17.6727 10.911 17.9253 10.911 18.2386V21.8699C10.911 22.1831 10.6493 22.4376 10.3361 22.4325C0.173778 22.2673 0.00292166 17.623 4.91209e-05 6.58014Z" fill="#E2F2FC"/>
<path d="M19 13.855C19 13.5417 18.7461 13.2821 18.4328 13.2821H13.6729C13.3597 13.2821 13.1056 13.5386 13.1077 13.8518C13.1601 21.5588 14.1857 25.2586 7.74094 24.4834C7.39581 24.4418 7.0857 24.7066 7.0857 25.0542V30.0846C7.0857 30.3979 7.34819 30.6522 7.66141 30.6479C18.8237 30.496 18.9973 25.8284 19 13.855Z" fill="#E2F2FC"/>
<path d="M11.1619 14.7509C11.1619 15.0642 10.9049 15.3209 10.5924 15.2994C7.08594 15.0583 7.08594 12.5126 7.08594 9.17283C7.08594 6.30752 7.08594 2.1459 7.08594 0.645795C7.08594 0.332546 7.33892 0.0804772 7.65213 0.0755799C12.4203 0.00102496 18.9273 -0.839508 18.9273 5.56904C18.9273 9.77686 15.1712 10.7664 11.7288 10.8585C11.4156 10.8669 11.1619 11.1198 11.1619 11.4331L11.1619 14.7509Z" fill="#E2F2FC"/>
</svg>
